# Blender v3.4.1 OBJ File: '174a.blend'
# www.blender.org
mtllib fish_wingL.mtl
o Cube.001_Cube
v -0.138483 -0.328733 -0.421130
v 0.530260 -0.113168 -0.423007
v 0.525807 -0.113168 -0.565647
v -0.897090 0.111392 -0.272586
v -0.901543 0.111392 -0.283181
v 0.629030 -0.768859 -0.423007
v 0.624578 -0.768859 -0.579035
v 0.565452 -0.724283 -0.720118
v 0.384718 -0.167059 -0.422921
v 0.520268 -0.584977 -0.531954
vt 0.000000 0.000000
vt 0.625000 0.750000
vt 0.000000 0.000000
vt 0.000000 0.000000
vt 0.000000 0.000000
vt 0.000000 0.000000
vt 0.000000 0.000000
vt 0.000000 0.000000
vt 0.000000 0.000000
vt 0.000000 0.000000
vt 0.000000 0.000000
vn 0.9885 0.1489 -0.0282
vn 0.9883 0.1495 -0.0308
vn 0.1545 0.9880 -0.0048
vn 0.2227 0.8083 -0.5450
vn -0.4748 -0.8572 0.1995
vn 0.1073 0.0162 0.9941
vn -0.4974 -0.8674 0.0142
vn 0.1487 0.9869 -0.0625
vn -0.0639 0.1959 -0.9785
vn 0.9280 0.1468 -0.3425
vn -0.8738 -0.0244 -0.4856
vn -0.2338 -0.8104 -0.5371
vn -0.4974 -0.8674 0.0163
vn -0.5079 -0.8594 -0.0587
vn -0.0741 0.2292 -0.9706
usemtl None
s off
f 7/1/1 2/2/1 6/3/1
f 3/4/2 2/2/2 7/1/2
f 2/5/3 3/4/3 5/6/3
f 10/7/4 8/8/4 1/9/4
f 5/6/5 6/3/5 4/10/5
f 2/5/6 4/10/6 6/3/6
f 6/3/7 1/9/7 7/1/7
f 5/6/8 4/10/8 2/5/8
f 1/9/9 5/6/9 9/11/9
f 7/1/10 8/8/10 3/4/10
f 3/4/11 8/8/11 10/7/11 9/11/11
f 5/6/12 3/4/12 9/11/12
f 6/3/13 5/6/13 1/9/13
f 7/1/14 1/9/14 8/8/14
f 9/11/15 10/7/15 1/9/15
