# Blender v3.4.1 OBJ File: ''
# www.blender.org
mtllib ship_body.mtl
o Cube_Cube.001
v 0.549242 -0.547738 0.317225
v 0.549242 -0.547738 -0.317225
v 0.004507 -0.547738 0.317225
v -1.000000 -0.279926 0.122632
v -0.009013 -0.547738 -0.317225
v -1.000000 -0.276178 -0.122632
v 0.998937 -0.547738 -0.066091
v 1.002692 -0.547738 0.066091
v 0.661504 -0.111267 -0.444266
v 0.661504 -0.111267 0.444266
v -0.002253 -0.547738 0.000000
v 0.913838 -0.547738 0.000000
v 1.717669 -0.111267 0.000000
v 0.957875 0.147212 0.000000
v -1.000000 -0.278052 0.000000
v 0.661504 -0.111267 -0.444266
v 0.661504 -0.111267 0.444266
v 1.297185 -0.547738 0.000000
v 0.645440 -0.593585 0.000000
v 0.853836 -0.111267 0.000000
v 0.653472 -0.352426 -0.222133
v 0.653472 -0.352426 0.222133
v 0.549242 -0.547738 0.000000
vt 0.375000 0.750000
vt 0.375000 0.625000
vt 0.375000 0.750000
vt 0.451698 0.000000
vt 0.452235 0.125000
vt 0.452771 0.250000
vt 0.329957 0.668952
vt 0.287096 0.750000
vt 0.286006 0.625000
vt 0.500000 0.750000
vt 0.375000 0.500000
vt 0.375000 0.500000
vt 0.500000 0.500000
vt 0.284915 0.500000
vt 0.375000 0.837904
vt 0.330503 0.625000
vt 0.375000 0.625000
vt 0.000000 0.000000
vt 0.000000 0.000000
vt 0.000000 0.000000
vt 0.000000 0.000000
vt 0.000000 0.000000
vt 0.187500 0.250000
vt 0.000000 0.000000
vt 0.000000 0.000000
vt 0.000000 0.000000
vt 0.000000 0.000000
vt 0.000000 0.000000
vt 0.000000 0.000000
vt 0.000000 0.000000
vt 0.000000 0.000000
vt 0.000000 0.000000
vt 0.000000 0.000000
vt 0.000000 0.000000
vn 0.0000 -1.0000 -0.0000
vn -0.2609 -0.9653 -0.0148
vn 0.4530 -0.3546 0.8180
vn 0.4558 -0.3548 -0.8163
vn -0.2633 -0.9647 0.0056
vn -0.2586 -0.9660 0.0055
vn 0.1653 -0.9678 0.1900
vn 0.0000 -0.2795 -0.9602
vn 0.0000 -0.2795 0.9602
vn -0.1907 0.0073 -0.9816
vn -0.1901 0.0004 0.9818
vn 0.2557 0.7517 0.6079
vn -0.4302 -0.9027 0.0000
vn 0.1790 -0.5616 -0.8078
vn 0.1816 -0.5590 0.8090
vn 0.3632 -0.3499 -0.8635
vn 0.3632 -0.3499 0.8635
vn -0.8608 0.3465 -0.3727
vn -0.8922 0.3217 -0.3170
vn -0.8922 0.3217 0.3170
vn -0.8531 0.3686 -0.3693
vn -0.8531 0.3686 0.3693
vn 0.1562 0.5778 0.8011
vn 0.1562 0.5778 -0.8011
vn -0.0958 0.9953 0.0152
vn -0.1039 0.9945 0.0152
vn 0.4948 0.1231 0.8602
vn 0.4948 0.1231 -0.8602
vn -0.8608 0.3465 0.3727
vn 0.2557 0.7517 -0.6079
vn 0.1653 -0.9678 -0.1900
vn 0.0478 0.6759 0.7355
vn 0.0478 0.6759 -0.7355
vn -0.7692 0.6391 0.0000
vn -0.2855 0.9584 0.0000
usemtl None
s off
f 1/1/1 12/2/1 8/3/1
f 4/4/2 15/5/2 6/6/2 11/7/2
f 3/8/1 11/9/1 1/1/1
f 8/3/3 10/10/3 1/1/3
f 7/11/4 2/12/4 9/13/4
f 6/6/5 5/14/5 11/7/5
f 11/7/6 3/15/6 4/4/6
f 1/1/7 19/16/7 12/2/7
f 2/12/1 11/9/1 5/14/1
f 8/3/1 12/2/1 7/11/1 18/17/1
f 7/11/1 12/2/1 2/12/1
f 5/14/8 9/13/8 2/12/8
f 1/1/9 10/10/9 3/8/9
f 6/6/10 9/13/10 5/14/10
f 3/8/11 10/10/11 4/4/11
f 14/18/12 10/19/12 13/20/12
f 1/21/1 11/22/1 2/12/1 23/23/1
f 1/21/13 23/24/13 2/25/13 19/26/13
f 18/17/14 7/11/14 16/27/14
f 8/3/15 18/17/15 17/28/15
f 18/17/16 16/27/16 13/20/16
f 18/17/17 13/20/17 17/28/17
f 14/18/18 20/29/18 17/28/18
f 19/26/19 1/21/19 17/28/19 22/30/19
f 19/26/20 21/31/20 16/27/20 2/25/20
f 17/28/21 20/29/21 22/30/21
f 20/29/22 16/27/22 21/31/22
f 11/22/23 16/27/23 15/32/23
f 15/32/24 17/28/24 11/22/24
f 15/32/25 16/27/25 6/6/25
f 4/4/26 17/28/26 15/32/26
f 16/27/27 11/22/27 2/25/27
f 17/28/28 1/21/28 11/22/28
f 14/18/29 16/27/29 20/29/29
f 13/20/30 9/33/30 14/18/30
f 12/34/31 19/26/31 2/25/31
f 16/27/32 11/22/32 21/31/32
f 17/28/33 22/30/33 11/22/33
f 20/29/34 21/31/34 22/30/34
f 21/31/35 11/22/35 22/30/35
l 9 16
l 10 17
l 12 18
